<?xml version="1.0" encoding="UTF-8"?>
<svg xmlns="http://www.w3.org/2000/svg" xmlns:xlink="http://www.w3.org/1999/xlink" width="255.1pt" height="115.5pt" viewBox="0 0 255.1 115.5" version="1.1">
<defs>
<clipPath id="clip1">
  <path d="M 4 101 L 252 101 L 252 115.5 L 4 115.5 Z M 4 101 "/>
</clipPath>
</defs>
<g id="surface1">
<path style=" stroke:none;fill-rule:evenodd;fill:rgb(7.446289%,8.616638%,6.272888%);fill-opacity:1;" d="M 16.582031 74.167969 L 11.570313 74.167969 L 11.570313 78.890625 C 12.140625 79.203125 12.738281 79.359375 13.367188 79.359375 C 14.339844 79.359375 15.410156 78.730469 16.582031 77.472656 Z M 16.582031 80.246094 C 15.71875 80.933594 14.792969 81.277344 13.808594 81.277344 C 13.140625 81.277344 12.316406 80.835938 11.335938 79.949219 C 11.214844 80.5625 10.976563 81.042969 10.625 81.414063 C 10.273438 81.773438 9.800781 82.015625 9.210938 82.132813 L 13.277344 86.257813 L 12.214844 87.144531 L 8.769531 83.308594 C 8.058594 82.523438 7.464844 81.753906 6.980469 80.996094 C 6.503906 80.238281 6.261719 79.535156 6.261719 78.890625 C 6.261719 78.59375 6.378906 78.347656 6.613281 78.152344 C 6.851563 77.957031 7.128906 77.855469 7.441406 77.855469 C 7.625 77.855469 7.972656 78.007813 8.472656 78.292969 C 8.769531 78.292969 8.914063 78.101563 8.914063 77.710938 L 8.914063 74.167969 L 5.582031 74.167969 L 4.253906 71.8125 L 21.296875 71.8125 L 22.625 74.167969 L 19.234375 74.167969 L 19.234375 86.554688 L 16.582031 84.785156 Z M 25.933594 94.515625 L 24.75 94.957031 C 23.789063 93.277344 22.757813 91.976563 21.65625 91.039063 C 20.554688 90.117188 19.523438 89.648438 18.5625 89.648438 C 18.015625 89.648438 17.566406 89.820313 17.195313 90.160156 C 16.828125 90.496094 16.644531 90.914063 16.644531 91.417969 C 16.644531 91.734375 16.757813 92.011719 16.996094 92.246094 C 17.230469 92.484375 17.507813 92.597656 17.820313 92.597656 C 18.785156 92.597656 19.523438 92.308594 20.035156 91.71875 L 21.210938 93.191406 C 20.40625 93.976563 19.621094 94.371094 18.851563 94.371094 C 17.839844 94.371094 17 93.992188 16.328125 93.242188 C 15.652344 92.488281 15.316406 91.585938 15.316406 90.535156 C 15.316406 89.78125 15.582031 89.121094 16.105469 88.566406 C 16.628906 88.015625 17.253906 87.734375 17.972656 87.734375 C 18.972656 87.734375 20.171875 88.328125 21.558594 89.503906 C 22.949219 90.679688 24.40625 92.351563 25.933594 94.515625 Z M 34.421875 74.167969 L 31.769531 74.167969 L 30.296875 71.8125 L 33.09375 71.8125 Z M 33.980469 80.214844 C 33.09375 80.707031 32.207031 80.953125 31.328125 80.953125 C 30.371094 80.953125 29.289063 80.460938 28.082031 79.480469 C 27.183594 79.789063 26.472656 80.226563 25.9375 80.769531 C 25.398438 81.316406 25.132813 81.867188 25.132813 82.429688 C 25.132813 83.027344 25.308594 83.542969 25.65625 83.984375 C 26.003906 84.417969 26.421875 84.636719 26.902344 84.636719 C 27.617188 84.636719 28.0625 84.492188 28.226563 84.195313 C 28.03125 83.980469 27.933594 83.734375 27.933594 83.460938 C 27.933594 83.078125 28.097656 82.761719 28.414063 82.511719 C 28.730469 82.257813 29.113281 82.132813 29.554688 82.132813 C 30.09375 82.132813 30.550781 82.304688 30.917969 82.640625 C 31.285156 82.984375 31.472656 83.402344 31.472656 83.902344 C 31.472656 84.664063 31.128906 85.257813 30.441406 85.667969 L 32.648438 88.765625 L 31.328125 89.359375 L 29.792969 86.113281 C 29.476563 86.246094 29.007813 86.320313 28.378906 86.320313 C 27.15625 86.320313 25.917969 85.78125 24.660156 84.699219 C 23.402344 83.617188 22.773438 82.566406 22.773438 81.539063 C 22.773438 80.863281 23.058594 80.191406 23.621094 79.515625 C 24.1875 78.839844 24.9375 78.289063 25.871094 77.855469 C 25.132813 77.347656 24.539063 76.789063 24.097656 76.171875 C 23.648438 75.566406 23.421875 74.996094 23.421875 74.46875 C 23.421875 73.660156 23.757813 72.996094 24.429688 72.460938 C 25.09375 71.933594 25.871094 71.664063 26.753906 71.664063 C 27.667969 71.664063 28.585938 72.140625 29.503906 73.089844 C 30.421875 74.035156 30.882813 74.988281 30.882813 75.941406 C 30.882813 76.492188 30.691406 77.03125 30.304688 77.554688 C 29.921875 78.082031 29.429688 78.523438 28.820313 78.890625 C 29.257813 79.183594 29.800781 79.328125 30.441406 79.328125 C 31.699219 79.328125 32.875 78.789063 33.980469 77.710938 Z M 26.460938 77.5625 C 27.207031 77.222656 27.789063 76.824219 28.203125 76.386719 C 28.613281 75.941406 28.820313 75.496094 28.820313 75.058594 C 28.820313 74.621094 28.679688 74.273438 28.410156 73.996094 C 28.132813 73.71875 27.78125 73.582031 27.347656 73.582031 C 26.832031 73.582031 26.386719 73.734375 26.003906 74.039063 C 25.621094 74.34375 25.429688 74.730469 25.429688 75.203125 C 25.429688 76.222656 25.773438 77.007813 26.460938 77.5625 Z M 42.855469 74.167969 L 38.433594 74.167969 L 38.433594 79.183594 L 42.855469 79.183594 Z M 42.855469 81.539063 L 38.433594 81.539063 L 38.433594 82.722656 C 38.433594 83.019531 38.382813 83.238281 38.285156 83.386719 C 38.183594 83.53125 38.039063 83.605469 37.84375 83.605469 C 37.371094 83.605469 36.640625 83.109375 35.644531 82.113281 C 34.652344 81.109375 34.15625 80.382813 34.15625 79.917969 C 34.15625 79.738281 34.230469 79.566406 34.371094 79.414063 C 34.511719 79.257813 34.6875 79.183594 34.894531 79.183594 L 35.78125 79.183594 L 35.78125 74.167969 L 33.390625 74.167969 L 32.0625 71.8125 L 47.570313 71.8125 L 48.898438 74.167969 L 45.507813 74.167969 L 45.507813 86.554688 L 42.855469 84.785156 Z M 54.867188 90.652344 L 54.867188 90.152344 C 55.753906 89.769531 56.394531 89.273438 56.792969 88.664063 C 57.191406 88.066406 57.386719 87.453125 57.386719 86.820313 C 57.386719 86.691406 57.367188 86.597656 57.316406 86.523438 C 57.257813 86.453125 57.203125 86.421875 57.15625 86.421875 C 57.105469 86.421875 57.035156 86.449219 56.949219 86.511719 C 56.722656 86.640625 56.445313 86.703125 56.121094 86.703125 C 55.671875 86.703125 55.277344 86.53125 54.953125 86.179688 C 54.621094 85.832031 54.453125 85.414063 54.453125 84.949219 C 54.453125 84.445313 54.644531 84.003906 55.023438 83.621094 C 55.398438 83.238281 55.863281 83.042969 56.402344 83.042969 C 57.058594 83.042969 57.617188 83.296875 58.082031 83.808594 C 58.542969 84.3125 58.777344 85.003906 58.777344 85.890625 C 58.777344 86.984375 58.449219 87.949219 57.796875 88.789063 C 57.140625 89.640625 56.164063 90.257813 54.867188 90.652344 Z M 78.585938 78.890625 C 78.410156 78.789063 78.113281 78.742188 77.703125 78.742188 C 77.144531 78.742188 76.574219 79.015625 75.992188 79.566406 C 75.414063 80.121094 74.902344 80.871094 74.460938 81.835938 L 72.246094 80.367188 C 72.265625 80.265625 72.464844 79.824219 72.835938 79.039063 C 72.515625 78.539063 71.976563 78.292969 71.214844 78.292969 C 70.585938 78.292969 70.046875 78.515625 69.59375 78.941406 C 69.140625 79.371094 68.914063 79.894531 68.914063 80.511719 C 68.914063 82.59375 70.027344 84.410156 72.246094 85.964844 L 71.511719 86.851563 C 68.171875 84.511719 66.5 82.046875 66.5 79.480469 C 66.5 78.449219 66.84375 77.574219 67.523438 76.863281 C 68.207031 76.148438 69.046875 75.789063 70.039063 75.789063 C 71.058594 75.789063 72.191406 76.53125 73.429688 78.007813 C 74.273438 76.824219 75.207031 76.234375 76.226563 76.234375 C 77.113281 76.234375 77.898438 76.582031 78.585938 77.265625 L 78.585938 74.167969 L 65.378906 74.167969 L 64.050781 71.8125 L 83.308594 71.8125 L 84.632813 74.167969 L 81.238281 74.167969 L 81.238281 86.554688 L 78.585938 85.226563 Z M 93.625 74.167969 L 88.40625 74.167969 C 88.03125 74.167969 87.75 74.273438 87.5625 74.46875 C 87.378906 74.664063 87.28125 74.957031 87.28125 75.347656 C 87.28125 75.871094 87.558594 76.367188 88.113281 76.824219 C 88.898438 76.628906 89.558594 76.53125 90.085938 76.53125 L 90.972656 78.742188 C 89.960938 78.742188 89.089844 78.933594 88.371094 79.308594 C 87.644531 79.6875 87.28125 80.140625 87.28125 80.65625 C 87.28125 80.964844 87.457031 81.210938 87.804688 81.402344 C 88.15625 81.59375 88.527344 81.691406 88.90625 81.691406 C 90.476563 81.691406 92.054688 80.90625 93.625 79.328125 Z M 93.625 82.722656 C 92.433594 83.707031 91.257813 84.195313 90.085938 84.195313 C 89.042969 84.195313 87.972656 83.648438 86.871094 82.542969 C 85.773438 81.441406 85.21875 80.371094 85.21875 79.328125 C 85.21875 78.480469 85.761719 77.789063 86.84375 77.265625 C 86.105469 76.984375 85.550781 76.664063 85.183594 76.296875 C 84.816406 75.941406 84.628906 75.542969 84.628906 75.117188 C 84.628906 74.742188 84.730469 74.429688 84.925781 74.167969 L 83.597656 74.167969 L 82.269531 71.8125 L 98.34375 71.8125 L 99.667969 74.167969 L 96.28125 74.167969 L 96.28125 86.554688 L 93.625 84.933594 Z M 86.105469 89.796875 L 86.84375 89.207031 C 87.679688 90.398438 88.703125 91.335938 89.914063 92.019531 C 91.132813 92.699219 92.363281 93.039063 93.621094 93.039063 C 94.5 93.039063 95.257813 92.773438 95.902344 92.246094 C 96.546875 91.714844 96.867188 91.046875 96.867188 90.242188 C 96.867188 90.027344 96.773438 89.847656 96.582031 89.710938 C 96.390625 89.574219 96.140625 89.503906 95.835938 89.503906 C 95.199219 89.503906 94.558594 89.945313 93.917969 90.832031 L 92.148438 89.207031 C 93.035156 88.328125 93.917969 87.882813 94.804688 87.882813 C 95.621094 87.882813 96.4375 88.289063 97.257813 89.113281 C 98.074219 89.9375 98.488281 90.753906 98.488281 91.566406 C 98.488281 92.503906 98.082031 93.292969 97.269531 93.960938 C 96.460938 94.621094 95.488281 94.957031 94.363281 94.957031 C 92.917969 94.957031 91.460938 94.496094 89.988281 93.574219 C 88.519531 92.648438 87.226563 91.390625 86.105469 89.796875 Z M 117.679688 74.167969 L 115.027344 74.167969 L 115.027344 80.070313 C 115.027344 80.679688 114.671875 81.195313 113.957031 81.628906 C 113.246094 82.0625 112.371094 82.277344 111.339844 82.277344 L 110.460938 80.511719 C 110.65625 80.585938 110.851563 80.628906 111.046875 80.628906 C 111.359375 80.628906 111.664063 80.527344 111.945313 80.320313 C 112.230469 80.113281 112.371094 79.832031 112.371094 79.480469 L 112.371094 74.167969 L 108.835938 74.167969 L 108.835938 80.953125 C 108.835938 81.472656 109.015625 82.007813 109.382813 82.542969 C 109.746094 83.089844 110.152344 83.492188 110.605469 83.753906 L 115.027344 86.410156 C 115.515625 86.703125 115.984375 87.082031 116.429688 87.558594 C 116.871094 88.03125 117.09375 88.433594 117.09375 88.765625 C 117.09375 89.039063 116.957031 89.359375 116.695313 89.710938 C 116.429688 90.0625 116.070313 90.390625 115.617188 90.683594 L 113.257813 88.914063 C 113.847656 88.558594 114.144531 88.164063 114.144531 87.734375 C 114.144531 87.460938 113.917969 87.128906 113.472656 86.746094 C 113.027344 86.363281 112.558594 86.046875 112.082031 85.816406 L 108.246094 83.902344 C 107.734375 83.648438 107.265625 83.257813 106.832031 82.746094 C 106.398438 82.226563 106.183594 81.730469 106.183594 81.246094 L 106.183594 74.167969 L 104.472656 74.167969 L 103.144531 71.8125 L 116.351563 71.8125 Z M 126.4375 79.480469 C 124.734375 78.292969 123.3125 77.710938 122.164063 77.710938 C 121.339844 77.710938 120.640625 77.945313 120.070313 78.410156 C 119.496094 78.871094 119.214844 79.429688 119.214844 80.070313 C 119.214844 80.597656 119.476563 81.046875 120.003906 81.417969 C 120.527344 81.796875 121.152344 81.984375 121.867188 81.984375 C 123.246094 81.984375 124.765625 81.152344 126.4375 79.480469 Z M 126.289063 82.429688 C 125.652344 82.96875 125.039063 83.371094 124.449219 83.640625 C 123.859375 83.914063 123.292969 84.046875 122.753906 84.046875 C 121.628906 84.046875 120.492188 83.496094 119.332031 82.398438 C 118.175781 81.292969 117.59375 80.226563 117.59375 79.183594 C 117.59375 78.167969 117.976563 77.304688 118.746094 76.582031 C 119.523438 75.859375 120.464844 75.496094 121.574219 75.496094 C 123.234375 75.496094 124.804688 76.378906 126.289063 78.152344 L 126.289063 74.167969 L 116.648438 74.167969 L 115.320313 71.8125 L 131.011719 71.8125 L 132.332031 74.167969 L 128.941406 74.167969 L 128.941406 86.554688 L 126.289063 84.785156 Z M 129.414063 69.007813 L 127.558594 70.867188 L 125.726563 69.007813 L 127.558594 67.183594 Z M 152.441406 74.167969 L 148.019531 74.167969 L 148.019531 79.183594 L 152.441406 79.183594 Z M 152.441406 81.539063 L 148.019531 81.539063 L 148.019531 82.722656 C 148.019531 83.019531 147.96875 83.238281 147.871094 83.386719 C 147.773438 83.53125 147.625 83.605469 147.429688 83.605469 C 146.957031 83.605469 146.226563 83.109375 145.230469 82.113281 C 144.238281 81.109375 143.742188 80.382813 143.742188 79.917969 C 143.742188 79.738281 143.816406 79.566406 143.957031 79.414063 C 144.097656 79.257813 144.273438 79.183594 144.480469 79.183594 L 145.367188 79.183594 L 145.367188 74.167969 L 142.976563 74.167969 L 141.648438 71.8125 L 157.15625 71.8125 L 158.484375 74.167969 L 155.09375 74.167969 L 155.09375 86.554688 L 152.441406 84.785156 Z M 161.523438 75.644531 C 162.101563 75.644531 162.589844 75.488281 162.988281 75.183594 C 163.386719 74.871094 163.585938 74.488281 163.585938 74.027344 C 163.585938 73.644531 163.445313 73.324219 163.164063 73.074219 C 162.886719 72.824219 162.535156 72.695313 162.113281 72.695313 C 161.679688 72.695313 161.324219 72.871094 161.035156 73.222656 C 160.75 73.566406 160.609375 73.960938 160.609375 74.394531 C 160.609375 74.785156 160.707031 75.09375 160.90625 75.3125 C 161.101563 75.535156 161.308594 75.644531 161.523438 75.644531 Z M 167.859375 82.429688 C 166.144531 83.605469 164.765625 84.195313 163.734375 84.195313 C 162.679688 84.195313 161.609375 83.734375 160.511719 82.796875 C 159.414063 81.871094 158.867188 80.964844 158.867188 80.070313 C 158.867188 79.492188 159.089844 78.945313 159.527344 78.4375 C 159.964844 77.9375 160.527344 77.59375 161.226563 77.414063 C 160.402344 77.109375 159.726563 76.664063 159.210938 76.078125 C 158.6875 75.496094 158.425781 74.859375 158.425781 74.167969 C 158.425781 73.414063 158.722656 72.757813 159.304688 72.203125 C 159.890625 71.652344 160.578125 71.367188 161.375 71.367188 C 162.230469 71.367188 162.957031 71.628906 163.5625 72.144531 C 164.167969 72.660156 164.472656 73.285156 164.472656 74.027344 C 164.472656 74.71875 164.210938 75.3125 163.699219 75.796875 C 163.179688 76.285156 162.554688 76.53125 161.816406 76.53125 C 161.90625 76.699219 162.179688 76.839844 162.636719 76.949219 C 163.09375 77.066406 163.605469 77.121094 164.175781 77.121094 L 165.351563 79.480469 L 163.734375 79.480469 C 162.9375 79.480469 162.25 79.636719 161.660156 79.957031 C 161.078125 80.277344 160.785156 80.65625 160.785156 81.101563 C 160.785156 81.355469 160.960938 81.59375 161.316406 81.808594 C 161.671875 82.027344 162.082031 82.132813 162.554688 82.132813 C 163.339844 82.132813 164.195313 81.890625 165.117188 81.414063 C 166.042969 80.929688 166.957031 80.234375 167.859375 79.328125 Z M 168.214844 74.167969 L 166.683594 74.167969 L 165.207031 71.8125 L 166.886719 71.8125 Z M 176.589844 74.167969 L 172.019531 74.167969 C 172.945313 75.222656 173.40625 76.183594 173.40625 77.058594 C 173.40625 77.660156 173.078125 78.203125 172.417969 78.683594 C 171.757813 79.164063 170.910156 79.441406 169.867188 79.511719 C 170.203125 80.078125 170.597656 80.507813 171.050781 80.789063 C 171.496094 81.074219 172.011719 81.214844 172.578125 81.214844 C 174.054688 81.214844 175.390625 80.523438 176.589844 79.121094 Z M 176.589844 82.308594 C 175.628906 83.214844 174.566406 83.664063 173.40625 83.664063 C 172.21875 83.664063 171.089844 83.042969 170.027344 81.808594 C 168.964844 80.574219 168.207031 79.085938 167.742188 77.355469 C 168.90625 77.355469 169.777344 77.191406 170.355469 76.855469 C 170.933594 76.523438 171.226563 76.019531 171.226563 75.347656 C 171.226563 74.914063 171.050781 74.523438 170.691406 74.167969 L 167.183594 74.167969 L 165.855469 71.8125 L 181.457031 71.8125 L 182.785156 74.167969 L 179.246094 74.167969 L 179.246094 86.554688 L 176.589844 84.933594 Z M 191.066406 74.167969 L 186.644531 74.167969 L 186.644531 79.183594 L 191.066406 79.183594 Z M 191.066406 81.539063 L 186.644531 81.539063 L 186.644531 82.722656 C 186.644531 83.019531 186.59375 83.238281 186.5 83.386719 C 186.398438 83.53125 186.25 83.605469 186.054688 83.605469 C 185.582031 83.605469 184.851563 83.109375 183.855469 82.113281 C 182.863281 81.109375 182.367188 80.382813 182.367188 79.917969 C 182.367188 79.738281 182.441406 79.566406 182.582031 79.414063 C 182.722656 79.257813 182.898438 79.183594 183.105469 79.183594 L 183.992188 79.183594 L 183.992188 74.167969 L 181.601563 74.167969 L 180.273438 71.8125 L 195.78125 71.8125 L 197.109375 74.167969 L 193.71875 74.167969 L 193.71875 86.554688 L 191.066406 84.785156 Z M 218.632813 82.574219 C 218.632813 83.492188 218.304688 84.253906 217.652344 84.878906 C 216.996094 85.503906 216.195313 85.816406 215.242188 85.816406 C 214.003906 85.816406 212.75 85.34375 211.476563 84.386719 C 210.203125 83.4375 209.101563 82.140625 208.164063 80.511719 L 208.90625 79.917969 C 209.558594 81.046875 210.292969 81.902344 211.109375 82.464844 C 211.917969 83.027344 212.804688 83.308594 213.765625 83.308594 C 214.40625 83.308594 214.960938 83.113281 215.425781 82.714844 C 215.894531 82.320313 216.125 81.832031 216.125 81.246094 C 216.125 80.933594 216.03125 80.644531 215.828125 80.371094 C 215.632813 80.097656 215.339844 79.851563 214.949219 79.621094 C 214.113281 79.917969 213.277344 80.070313 212.441406 80.070313 L 211.113281 77.855469 C 211.359375 77.871094 211.597656 77.886719 211.824219 77.886719 C 212.726563 77.886719 213.519531 77.71875 214.210938 77.378906 C 214.898438 77.039063 215.242188 76.605469 215.242188 76.089844 C 215.242188 75.671875 215.144531 75.308594 214.949219 74.992188 C 214.753906 74.664063 214.457031 74.398438 214.0625 74.167969 L 207.753906 74.167969 L 206.425781 71.8125 L 219.546875 71.8125 L 220.871094 74.167969 L 215.828125 74.167969 C 216.421875 74.664063 216.867188 75.152344 217.15625 75.644531 C 217.457031 76.140625 217.601563 76.628906 217.601563 77.121094 C 217.601563 77.839844 217.109375 78.472656 216.125 79.039063 C 216.960938 79.527344 217.589844 80.070313 218.007813 80.65625 C 218.425781 81.246094 218.632813 81.886719 218.632813 82.574219 Z M 237.472656 74.167969 L 234.082031 74.167969 L 234.082031 86.554688 L 231.429688 84.964844 L 231.429688 84.492188 C 230.265625 85.667969 228.894531 86.257813 227.296875 86.257813 C 226.089844 86.257813 224.925781 85.847656 223.816406 85.019531 C 222.699219 84.195313 222.140625 83.234375 222.140625 82.132813 C 222.140625 81.472656 222.386719 80.984375 222.878906 80.65625 C 222.25 80.128906 221.746094 79.566406 221.375 78.976563 C 221.003906 78.386719 220.8125 77.867188 220.8125 77.414063 C 220.8125 76.824219 221.039063 76.335938 221.492188 75.941406 C 221.945313 75.542969 222.503906 75.347656 223.171875 75.347656 L 226.121094 75.347656 L 226.121094 74.167969 L 219.839844 74.167969 L 218.511719 71.8125 L 236.144531 71.8125 Z M 231.429688 81.539063 L 231.429688 74.167969 L 228.773438 74.167969 L 228.773438 77.5625 L 224.203125 77.5625 C 223.714844 77.5625 223.34375 77.648438 223.097656 77.820313 C 222.855469 77.992188 222.730469 78.253906 222.730469 78.59375 C 222.730469 79.164063 222.976563 79.65625 223.46875 80.070313 C 224.164063 79.574219 225.441406 79.328125 227.296875 79.328125 L 228.335938 81.539063 C 227.871094 81.464844 227.429688 81.417969 227.007813 81.417969 C 226.015625 81.417969 225.222656 81.59375 224.640625 81.9375 C 224.050781 82.273438 223.761719 82.679688 223.761719 83.164063 C 223.761719 83.496094 224.046875 83.777344 224.617188 84.003906 C 225.1875 84.230469 225.832031 84.339844 226.5625 84.339844 C 228.519531 84.339844 230.140625 83.410156 231.429688 81.539063 Z M 245.90625 74.167969 L 241.484375 74.167969 L 241.484375 79.183594 L 245.90625 79.183594 Z M 245.90625 81.539063 L 241.484375 81.539063 L 241.484375 82.722656 C 241.484375 83.019531 241.433594 83.238281 241.335938 83.386719 C 241.234375 83.53125 241.089844 83.605469 240.894531 83.605469 C 240.421875 83.605469 239.691406 83.109375 238.695313 82.113281 C 237.703125 81.109375 237.207031 80.382813 237.207031 79.917969 C 237.207031 79.738281 237.28125 79.566406 237.421875 79.414063 C 237.5625 79.257813 237.738281 79.183594 237.945313 79.183594 L 238.832031 79.183594 L 238.832031 74.167969 L 236.441406 74.167969 L 235.113281 71.8125 L 250.621094 71.8125 L 251.949219 74.167969 L 248.558594 74.167969 L 248.558594 86.554688 L 245.90625 84.785156 Z M 245.90625 81.539063 "/>
<path style=" stroke:none;fill-rule:evenodd;fill:rgb(7.446289%,8.616638%,6.272888%);fill-opacity:1;" d="M 2.921875 63.503906 L 253.050781 63.503906 C 252.667969 60.949219 255.148438 60.941406 247.046875 61.101563 C 209.691406 61.835938 165.230469 61.121094 127.652344 61.121094 L 16.230469 61.121094 C 0.0273438 61.121094 3.179688 60.148438 2.921875 63.503906 Z M 2.921875 63.503906 "/>
<path style=" stroke:none;fill-rule:evenodd;fill:rgb(7.446289%,8.616638%,6.272888%);fill-opacity:1;" d="M 16.90625 1.597656 C 5.804688 0.996094 2.765625 7.851563 2.804688 18.445313 C 2.839844 28.753906 2.765625 39.066406 2.824219 49.371094 L 16.894531 49.464844 Z M 16.90625 1.597656 "/>
<path style=" stroke:none;fill-rule:evenodd;fill:rgb(7.446289%,8.616638%,6.272888%);fill-opacity:1;" d="M 45.332031 49.484375 L 59.40625 49.484375 L 59.453125 48.703125 C 59.453125 38.621094 59.433594 28.535156 59.476563 18.457031 C 59.519531 7.695313 56.160156 1.746094 45.328125 1.441406 Z M 45.332031 49.484375 "/>
<path style=" stroke:none;fill-rule:evenodd;fill:rgb(7.446289%,8.616638%,6.272888%);fill-opacity:1;" d="M 37.796875 43.195313 L 37.867188 1.496094 L 24.015625 1.492188 L 24.015625 43.191406 L 37.796875 43.191406 Z M 37.796875 43.195313 "/>
<path style=" stroke:none;fill-rule:evenodd;fill:rgb(7.446289%,8.616638%,6.272888%);fill-opacity:1;" d="M 146.246094 1.441406 C 134.925781 1.746094 132.054688 8.09375 132.105469 19.253906 C 132.148438 29.328125 132.050781 39.410156 132.128906 49.484375 L 146.257813 49.484375 Z M 146.246094 1.441406 "/>
<path style=" stroke:none;fill-rule:evenodd;fill:rgb(7.446289%,8.616638%,6.272888%);fill-opacity:1;" d="M 174.660156 49.4375 L 188.746094 49.441406 C 188.785156 39.019531 188.726563 28.734375 188.765625 18.445313 C 188.804688 7.648438 185.769531 1.4375 174.65625 1.503906 Z M 174.660156 49.4375 "/>
<path style=" stroke:none;fill-rule:evenodd;fill:rgb(7.446289%,8.616638%,6.272888%);fill-opacity:1;" d="M 152.917969 43.195313 L 166.558594 43.195313 L 166.550781 1.496094 L 152.835938 1.496094 Z M 152.917969 43.195313 "/>
<path style=" stroke:none;fill-rule:evenodd;fill:rgb(7.446289%,8.616638%,6.272888%);fill-opacity:1;" d="M 253.402344 13.550781 L 253.402344 1.136719 C 243.320313 0.0859375 228.933594 0.90625 218.382813 0.902344 C 205.589844 0.902344 196.363281 -0.0703125 195.925781 13.816406 Z M 253.402344 13.550781 "/>
<path style=" stroke:none;fill-rule:evenodd;fill:rgb(7.446289%,8.616638%,6.272888%);fill-opacity:1;" d="M 253.402344 49.972656 L 253.402344 37.566406 L 195.925781 37.257813 C 196.410156 51.109375 205.800781 50.132813 218.382813 50.132813 C 229.496094 50.132813 242.527344 50.753906 253.402344 49.972656 Z M 253.402344 49.972656 "/>
<path style=" stroke:none;fill-rule:evenodd;fill:rgb(7.446289%,8.616638%,6.272888%);fill-opacity:1;" d="M 196.003906 31.972656 L 238.53125 31.976563 L 238.554688 19.09375 L 195.996094 19.097656 Z M 196.003906 31.972656 "/>
<path style=" stroke:none;fill-rule:evenodd;fill:rgb(7.446289%,8.616638%,6.272888%);fill-opacity:1;" d="M 66.277344 13.804688 L 123.53125 13.644531 L 123.53125 1.054688 C 112.730469 0.277344 99.699219 0.90625 88.65625 0.902344 C 76.015625 0.902344 66.730469 -0.0117188 66.277344 13.804688 Z M 66.277344 13.804688 "/>
<path style=" stroke:none;fill-rule:evenodd;fill:rgb(7.446289%,8.616638%,6.272888%);fill-opacity:1;" d="M 66.511719 50.085938 C 78.136719 50.085938 89.765625 50.082031 101.390625 50.085938 C 114.179688 50.085938 123.085938 51.363281 123.535156 37.410156 L 66.277344 37.210938 Z M 66.511719 50.085938 "/>
<path style=" stroke:none;fill-rule:evenodd;fill:rgb(7.446289%,8.616638%,6.272888%);fill-opacity:1;" d="M 66.375 19.117188 L 67.484375 19.039063 L 96.921875 18.9375 C 98.390625 18.957031 99.835938 18.964844 101.25 18.964844 C 113.09375 18.964844 121.992188 18.164063 123.4375 29.433594 L 123.394531 31.71875 C 111.769531 31.71875 100.144531 31.714844 88.515625 31.71875 C 75.75 31.71875 66.851563 32.992188 66.375 19.117188 Z M 66.375 19.117188 "/>
<g clip-path="url(#clip1)" clip-rule="nonzero">
<path style=" stroke:none;fill-rule:evenodd;fill:rgb(7.446289%,8.616638%,6.272888%);fill-opacity:1;" d="M 4.886719 112.851563 L 4.886719 101.289063 L 7.582031 101.289063 L 9.171875 109.175781 L 10.746094 101.289063 L 13.449219 101.289063 L 13.449219 112.851563 L 11.785156 112.851563 L 11.777344 103.746094 L 10.027344 112.851563 L 8.296875 112.851563 L 6.554688 103.746094 L 6.546875 112.851563 Z M 15.183594 101.289063 L 16.984375 101.289063 L 16.984375 112.851563 L 15.183594 112.851563 Z M 24.375 108.585938 L 26.113281 109.285156 C 25.847656 110.558594 25.402344 111.5 24.78125 112.121094 C 24.160156 112.738281 23.375 113.042969 22.421875 113.042969 C 21.242188 113.042969 20.269531 112.523438 19.511719 111.472656 C 18.75 110.417969 18.371094 108.988281 18.371094 107.167969 C 18.371094 105.242188 18.753906 103.746094 19.515625 102.679688 C 20.28125 101.613281 21.285156 101.082031 22.53125 101.082031 C 23.617188 101.082031 24.5 101.496094 25.179688 102.335938 C 25.585938 102.832031 25.886719 103.539063 26.089844 104.472656 L 24.3125 105.019531 C 24.210938 104.417969 23.988281 103.949219 23.65625 103.601563 C 23.320313 103.253906 22.917969 103.082031 22.441406 103.082031 C 21.78125 103.082031 21.246094 103.390625 20.835938 104.007813 C 20.425781 104.621094 20.21875 105.613281 20.21875 106.996094 C 20.21875 108.453125 20.421875 109.496094 20.824219 110.113281 C 21.230469 110.734375 21.757813 111.042969 22.402344 111.042969 C 22.878906 111.042969 23.292969 110.847656 23.636719 110.453125 C 23.980469 110.058594 24.226563 109.4375 24.375 108.585938 Z M 27.65625 112.851563 L 27.65625 101.289063 L 31.433594 101.289063 C 32.382813 101.289063 33.070313 101.394531 33.503906 101.601563 C 33.933594 101.808594 34.277344 102.179688 34.535156 102.707031 C 34.792969 103.242188 34.925781 103.847656 34.925781 104.53125 C 34.925781 105.398438 34.730469 106.117188 34.339844 106.679688 C 33.949219 107.246094 33.367188 107.601563 32.589844 107.75 C 32.976563 108.042969 33.292969 108.367188 33.542969 108.71875 C 33.796875 109.070313 34.132813 109.699219 34.5625 110.597656 L 35.644531 112.851563 L 33.5 112.851563 L 32.214844 110.328125 C 31.753906 109.433594 31.4375 108.867188 31.265625 108.632813 C 31.09375 108.402344 30.914063 108.238281 30.726563 108.152344 C 30.53125 108.066406 30.230469 108.023438 29.816406 108.023438 L 29.453125 108.023438 L 29.453125 112.851563 Z M 29.453125 106.183594 L 30.78125 106.183594 C 31.640625 106.183594 32.175781 106.136719 32.390625 106.039063 C 32.605469 105.945313 32.773438 105.78125 32.894531 105.550781 C 33.015625 105.320313 33.078125 105.027344 33.078125 104.679688 C 33.078125 104.289063 32.996094 103.980469 32.835938 103.738281 C 32.675781 103.496094 32.453125 103.347656 32.160156 103.285156 C 32.015625 103.257813 31.578125 103.246094 30.851563 103.246094 L 29.453125 103.246094 Z M 36.242188 107.140625 C 36.242188 105.957031 36.378906 104.972656 36.648438 104.167969 C 36.851563 103.582031 37.125 103.046875 37.476563 102.582031 C 37.828125 102.113281 38.207031 101.765625 38.625 101.539063 C 39.179688 101.234375 39.816406 101.082031 40.542969 101.082031 C 41.851563 101.082031 42.898438 101.609375 43.6875 102.664063 C 44.472656 103.730469 44.867188 105.203125 44.867188 107.085938 C 44.867188 108.957031 44.476563 110.417969 43.695313 111.476563 C 42.914063 112.535156 41.871094 113.0625 40.566406 113.0625 C 39.246094 113.0625 38.191406 112.539063 37.414063 111.484375 C 36.632813 110.4375 36.242188 108.988281 36.242188 107.140625 Z M 38.089844 107.0625 C 38.089844 108.375 38.324219 109.367188 38.789063 110.042969 C 39.257813 110.722656 39.847656 111.0625 40.5625 111.0625 C 41.28125 111.0625 41.867188 110.722656 42.328125 110.054688 C 42.789063 109.382813 43.015625 108.375 43.015625 107.03125 C 43.015625 105.703125 42.792969 104.714844 42.34375 104.0625 C 41.898438 103.410156 41.304688 103.082031 40.5625 103.082031 C 39.820313 103.082031 39.226563 103.414063 38.773438 104.074219 C 38.320313 104.734375 38.089844 105.730469 38.089844 107.0625 Z M 46.203125 110.640625 L 47.902344 110.640625 L 47.902344 112.226563 C 47.902344 112.867188 47.863281 113.375 47.777344 113.746094 C 47.691406 114.117188 47.53125 114.449219 47.296875 114.742188 C 47.058594 115.039063 46.757813 115.265625 46.398438 115.4375 L 46.066406 114.515625 C 46.410156 114.367188 46.648438 114.167969 46.796875 113.90625 C 46.9375 113.652344 47.015625 113.300781 47.023438 112.851563 L 46.203125 112.851563 Z M 52.6875 109.105469 L 54.4375 108.882813 C 54.542969 109.640625 54.753906 110.199219 55.074219 110.558594 C 55.394531 110.914063 55.828125 111.09375 56.371094 111.09375 C 56.945313 111.09375 57.378906 110.933594 57.671875 110.617188 C 57.964844 110.300781 58.109375 109.929688 58.109375 109.5 C 58.109375 109.226563 58.046875 108.996094 57.925781 108.800781 C 57.804688 108.609375 57.589844 108.445313 57.285156 108.304688 C 57.074219 108.207031 56.597656 108.039063 55.855469 107.800781 C 54.898438 107.488281 54.222656 107.105469 53.835938 106.648438 C 53.292969 106.011719 53.023438 105.234375 53.023438 104.316406 C 53.023438 103.726563 53.152344 103.167969 53.40625 102.65625 C 53.660156 102.144531 54.03125 101.753906 54.511719 101.484375 C 54.992188 101.214844 55.574219 101.082031 56.253906 101.082031 C 57.367188 101.082031 58.203125 101.402344 58.765625 102.039063 C 59.328125 102.6875 59.621094 103.539063 59.648438 104.617188 L 57.847656 104.699219 C 57.773438 104.101563 57.609375 103.667969 57.359375 103.410156 C 57.109375 103.148438 56.734375 103.019531 56.234375 103.019531 C 55.714844 103.019531 55.3125 103.15625 55.019531 103.4375 C 54.832031 103.617188 54.734375 103.859375 54.734375 104.160156 C 54.734375 104.433594 54.824219 104.664063 55.003906 104.863281 C 55.226563 105.113281 55.777344 105.371094 56.644531 105.640625 C 57.515625 105.90625 58.160156 106.1875 58.574219 106.472656 C 58.992188 106.757813 59.320313 107.148438 59.554688 107.648438 C 59.792969 108.144531 59.910156 108.757813 59.910156 109.488281 C 59.910156 110.152344 59.769531 110.773438 59.484375 111.351563 C 59.203125 111.929688 58.804688 112.359375 58.285156 112.640625 C 57.769531 112.917969 57.125 113.0625 56.351563 113.0625 C 55.230469 113.0625 54.367188 112.726563 53.765625 112.050781 C 53.164063 111.375 52.804688 110.394531 52.6875 109.105469 Z M 61.410156 112.851563 L 61.410156 101.289063 L 64.105469 101.289063 L 65.695313 109.175781 L 67.269531 101.289063 L 69.972656 101.289063 L 69.972656 112.851563 L 68.308594 112.851563 L 68.300781 103.746094 L 66.550781 112.851563 L 64.824219 112.851563 L 63.078125 103.746094 L 63.074219 112.851563 Z M 79.773438 112.851563 L 77.835938 112.851563 L 77.070313 110.222656 L 73.503906 110.222656 L 72.765625 112.851563 L 70.863281 112.851563 L 74.316406 101.289063 L 76.214844 101.289063 Z M 76.488281 108.265625 L 75.25 103.988281 L 74.050781 108.265625 Z M 80.78125 112.851563 L 80.78125 101.386719 L 82.582031 101.386719 L 82.582031 110.898438 L 87.035156 110.898438 L 87.035156 112.851563 Z M 88.359375 112.851563 L 88.359375 101.386719 L 90.160156 101.386719 L 90.160156 110.898438 L 94.613281 110.898438 L 94.613281 112.851563 Z M 106.96875 111.449219 L 105.933594 113.160156 C 105.429688 112.835938 104.945313 112.398438 104.480469 111.832031 C 104.121094 112.25 103.738281 112.566406 103.335938 112.765625 C 102.933594 112.960938 102.453125 113.0625 101.894531 113.0625 C 100.789063 113.0625 99.957031 112.65625 99.398438 111.847656 C 98.96875 111.222656 98.753906 110.5 98.753906 109.683594 C 98.753906 108.941406 98.921875 108.273438 99.265625 107.683594 C 99.601563 107.085938 100.113281 106.578125 100.789063 106.140625 C 100.484375 105.667969 100.253906 105.226563 100.101563 104.796875 C 99.945313 104.371094 99.871094 103.972656 99.871094 103.59375 C 99.871094 102.894531 100.085938 102.296875 100.515625 101.8125 C 100.941406 101.324219 101.558594 101.082031 102.351563 101.082031 C 103.117188 101.082031 103.714844 101.335938 104.148438 101.84375 C 104.582031 102.355469 104.796875 102.976563 104.796875 103.714844 C 104.796875 104.183594 104.691406 104.628906 104.476563 105.042969 C 104.265625 105.46875 103.835938 105.945313 103.191406 106.472656 L 104.414063 108.613281 C 104.558594 108.28125 104.683594 107.835938 104.789063 107.304688 L 106.328125 107.75 C 106.175781 108.460938 106.042969 108.984375 105.929688 109.3125 C 105.816406 109.640625 105.695313 109.917969 105.566406 110.140625 C 105.753906 110.371094 106 110.625 106.304688 110.902344 C 106.605469 111.179688 106.828125 111.363281 106.96875 111.449219 Z M 102.332031 105.152344 L 102.789063 104.691406 C 103.128906 104.351563 103.292969 104.011719 103.292969 103.671875 C 103.292969 103.390625 103.214844 103.148438 103.050781 102.949219 C 102.890625 102.746094 102.667969 102.648438 102.390625 102.648438 C 102.125 102.648438 101.914063 102.734375 101.757813 102.910156 C 101.609375 103.089844 101.53125 103.289063 101.53125 103.523438 C 101.53125 103.796875 101.660156 104.128906 101.917969 104.519531 Z M 101.667969 107.566406 C 101.277344 107.824219 100.984375 108.136719 100.792969 108.5 C 100.601563 108.863281 100.503906 109.234375 100.503906 109.609375 C 100.503906 110.085938 100.621094 110.480469 100.863281 110.785156 C 101.101563 111.082031 101.421875 111.238281 101.824219 111.238281 C 102.089844 111.238281 102.34375 111.167969 102.589844 111.03125 C 102.835938 110.894531 103.101563 110.667969 103.390625 110.351563 Z M 111.496094 112.851563 L 111.496094 101.289063 L 114.191406 101.289063 L 115.78125 109.175781 L 117.355469 101.289063 L 120.058594 101.289063 L 120.058594 112.851563 L 118.394531 112.851563 L 118.386719 103.746094 L 116.636719 112.851563 L 114.910156 112.851563 L 113.164063 103.746094 L 113.160156 112.851563 Z M 121.855469 112.851563 L 121.855469 101.289063 L 128.433594 101.289063 L 128.433594 103.246094 L 123.65625 103.246094 L 123.65625 105.8125 L 128.097656 105.8125 L 128.097656 107.765625 L 123.65625 107.765625 L 123.65625 110.898438 L 128.605469 110.898438 L 128.605469 112.851563 Z M 130.132813 101.289063 L 133.402344 101.289063 C 134.140625 101.289063 134.703125 101.363281 135.089844 101.511719 C 135.609375 101.710938 136.058594 102.066406 136.425781 102.578125 C 136.800781 103.085938 137.078125 103.710938 137.273438 104.449219 C 137.464844 105.1875 137.5625 106.101563 137.5625 107.183594 C 137.5625 108.136719 137.472656 108.953125 137.292969 109.640625 C 137.070313 110.484375 136.753906 111.164063 136.339844 111.683594 C 136.03125 112.082031 135.609375 112.386719 135.085938 112.609375 C 134.6875 112.773438 134.160156 112.851563 133.5 112.851563 L 130.132813 112.851563 Z M 131.929688 103.246094 L 131.929688 110.898438 L 133.265625 110.898438 C 133.761719 110.898438 134.121094 110.863281 134.34375 110.789063 C 134.636719 110.695313 134.875 110.535156 135.066406 110.308594 C 135.257813 110.082031 135.414063 109.707031 135.535156 109.191406 C 135.65625 108.675781 135.714844 107.96875 135.714844 107.074219 C 135.714844 106.179688 135.65625 105.496094 135.535156 105.019531 C 135.414063 104.539063 135.242188 104.164063 135.027344 103.898438 C 134.808594 103.632813 134.535156 103.449219 134.199219 103.355469 C 133.953125 103.28125 133.460938 103.246094 132.734375 103.246094 Z M 139.03125 101.289063 L 140.828125 101.289063 L 140.828125 112.851563 L 139.03125 112.851563 Z M 142.539063 101.289063 L 144.339844 101.289063 L 144.339844 107.554688 C 144.339844 108.550781 144.359375 109.195313 144.40625 109.488281 C 144.480469 109.957031 144.660156 110.34375 144.945313 110.625 C 145.234375 110.917969 145.625 111.0625 146.121094 111.0625 C 146.625 111.0625 147.003906 110.925781 147.261719 110.65625 C 147.515625 110.382813 147.671875 110.050781 147.722656 109.65625 C 147.773438 109.257813 147.800781 108.605469 147.800781 107.691406 L 147.800781 101.289063 L 149.601563 101.289063 L 149.601563 107.371094 C 149.601563 108.757813 149.550781 109.742188 149.453125 110.316406 C 149.355469 110.886719 149.179688 111.371094 148.917969 111.769531 C 148.660156 112.164063 148.3125 112.476563 147.878906 112.707031 C 147.441406 112.945313 146.875 113.0625 146.175781 113.0625 C 145.328125 113.0625 144.6875 112.9375 144.253906 112.679688 C 143.816406 112.425781 143.46875 112.09375 143.214844 111.683594 C 142.960938 111.277344 142.796875 110.851563 142.714844 110.402344 C 142.597656 109.738281 142.539063 108.757813 142.539063 107.460938 Z M 151.476563 112.851563 L 151.476563 101.289063 L 154.167969 101.289063 L 155.761719 109.175781 L 157.335938 101.289063 L 160.035156 101.289063 L 160.035156 112.851563 L 158.375 112.851563 L 158.367188 103.746094 L 156.617188 112.851563 L 154.886719 112.851563 L 153.144531 103.746094 L 153.136719 112.851563 Z M 165.28125 112.851563 L 165.28125 101.289063 L 171.859375 101.289063 L 171.859375 103.246094 L 167.082031 103.246094 L 167.082031 105.8125 L 171.523438 105.8125 L 171.523438 107.765625 L 167.082031 107.765625 L 167.082031 110.898438 L 172.03125 110.898438 L 172.03125 112.851563 Z M 173.558594 112.851563 L 173.558594 101.289063 L 175.300781 101.289063 L 178.957031 109.039063 L 178.957031 101.289063 L 180.617188 101.289063 L 180.617188 112.851563 L 178.820313 112.851563 L 175.222656 105.253906 L 175.222656 112.851563 Z M 184.515625 112.851563 L 184.515625 103.246094 L 181.886719 103.246094 L 181.886719 101.289063 L 188.933594 101.289063 L 188.933594 103.246094 L 186.316406 103.246094 L 186.316406 112.851563 Z M 190.097656 112.851563 L 190.097656 101.289063 L 196.675781 101.289063 L 196.675781 103.246094 L 191.898438 103.246094 L 191.898438 105.8125 L 196.339844 105.8125 L 196.339844 107.765625 L 191.898438 107.765625 L 191.898438 110.898438 L 196.847656 110.898438 L 196.847656 112.851563 Z M 198.375 112.851563 L 198.375 101.289063 L 202.152344 101.289063 C 203.101563 101.289063 203.789063 101.394531 204.222656 101.601563 C 204.652344 101.808594 204.996094 102.179688 205.253906 102.707031 C 205.515625 103.242188 205.644531 103.847656 205.644531 104.53125 C 205.644531 105.398438 205.449219 106.117188 205.058594 106.679688 C 204.667969 107.246094 204.085938 107.601563 203.308594 107.75 C 203.695313 108.042969 204.011719 108.367188 204.261719 108.71875 C 204.515625 109.070313 204.855469 109.699219 205.28125 110.597656 L 206.363281 112.851563 L 204.21875 112.851563 L 202.933594 110.328125 C 202.472656 109.433594 202.15625 108.867188 201.984375 108.632813 C 201.816406 108.402344 201.632813 108.238281 201.445313 108.152344 C 201.253906 108.066406 200.949219 108.023438 200.535156 108.023438 L 200.171875 108.023438 L 200.171875 112.851563 Z M 200.171875 106.183594 L 201.5 106.183594 C 202.359375 106.183594 202.894531 106.136719 203.109375 106.039063 C 203.324219 105.945313 203.492188 105.78125 203.613281 105.550781 C 203.734375 105.320313 203.796875 105.027344 203.796875 104.679688 C 203.796875 104.289063 203.714844 103.980469 203.554688 103.738281 C 203.394531 103.496094 203.171875 103.347656 202.882813 103.285156 C 202.734375 103.257813 202.296875 103.246094 201.574219 103.246094 L 200.171875 103.246094 Z M 207.335938 112.851563 L 207.335938 101.289063 L 210.210938 101.289063 C 211.300781 101.289063 212.011719 101.347656 212.339844 101.460938 C 212.847656 101.636719 213.273438 102.015625 213.617188 102.597656 C 213.960938 103.171875 214.132813 103.929688 214.132813 104.847656 C 214.132813 105.558594 214.035156 106.152344 213.835938 106.636719 C 213.640625 107.125 213.390625 107.5 213.085938 107.78125 C 212.78125 108.054688 212.472656 108.238281 212.15625 108.324219 C 211.730469 108.4375 211.109375 108.492188 210.296875 108.492188 L 209.132813 108.492188 L 209.132813 112.851563 Z M 209.132813 103.246094 L 209.132813 106.539063 L 210.113281 106.539063 C 210.816406 106.539063 211.285156 106.476563 211.523438 106.355469 C 211.761719 106.234375 211.949219 106.042969 212.082031 105.785156 C 212.214844 105.527344 212.285156 105.226563 212.285156 104.882813 C 212.285156 104.460938 212.1875 104.113281 212 103.839844 C 211.808594 103.566406 211.574219 103.390625 211.28125 103.324219 C 211.070313 103.273438 210.640625 103.246094 209.996094 103.246094 Z M 215.609375 112.851563 L 215.609375 101.289063 L 219.386719 101.289063 C 220.335938 101.289063 221.027344 101.394531 221.457031 101.601563 C 221.890625 101.808594 222.234375 102.179688 222.492188 102.707031 C 222.75 103.242188 222.882813 103.847656 222.882813 104.53125 C 222.882813 105.398438 222.6875 106.117188 222.296875 106.679688 C 221.902344 107.246094 221.320313 107.601563 220.542969 107.75 C 220.929688 108.042969 221.25 108.367188 221.5 108.71875 C 221.75 109.070313 222.089844 109.699219 222.515625 110.597656 L 223.601563 112.851563 L 221.457031 112.851563 L 220.167969 110.328125 C 219.707031 109.433594 219.390625 108.867188 219.21875 108.632813 C 219.050781 108.402344 218.871094 108.238281 218.679688 108.152344 C 218.488281 108.066406 218.1875 108.023438 217.773438 108.023438 L 217.40625 108.023438 L 217.40625 112.851563 Z M 217.40625 106.183594 L 218.738281 106.183594 C 219.597656 106.183594 220.132813 106.136719 220.347656 106.039063 C 220.558594 105.945313 220.730469 105.78125 220.851563 105.550781 C 220.972656 105.320313 221.03125 105.027344 221.03125 104.679688 C 221.03125 104.289063 220.949219 103.980469 220.792969 103.738281 C 220.632813 103.496094 220.40625 103.347656 220.117188 103.285156 C 219.972656 103.257813 219.535156 103.246094 218.808594 103.246094 L 217.40625 103.246094 Z M 224.507813 101.289063 L 226.308594 101.289063 L 226.308594 112.851563 L 224.507813 112.851563 Z M 227.546875 109.105469 L 229.296875 108.882813 C 229.402344 109.640625 229.613281 110.199219 229.933594 110.558594 C 230.253906 110.914063 230.683594 111.09375 231.230469 111.09375 C 231.804688 111.09375 232.238281 110.933594 232.53125 110.617188 C 232.820313 110.300781 232.96875 109.929688 232.96875 109.5 C 232.96875 109.226563 232.90625 108.996094 232.785156 108.800781 C 232.660156 108.609375 232.445313 108.445313 232.140625 108.304688 C 231.933594 108.207031 231.457031 108.039063 230.710938 107.800781 C 229.753906 107.488281 229.082031 107.105469 228.695313 106.648438 C 228.152344 106.011719 227.882813 105.234375 227.882813 104.316406 C 227.882813 103.726563 228.007813 103.167969 228.265625 102.65625 C 228.519531 102.144531 228.890625 101.753906 229.371094 101.484375 C 229.851563 101.214844 230.429688 101.082031 231.113281 101.082031 C 232.222656 101.082031 233.0625 101.402344 233.621094 102.039063 C 234.183594 102.6875 234.476563 103.539063 234.507813 104.617188 L 232.707031 104.699219 C 232.632813 104.101563 232.46875 103.667969 232.21875 103.410156 C 231.96875 103.148438 231.589844 103.019531 231.089844 103.019531 C 230.574219 103.019531 230.167969 103.15625 229.875 103.4375 C 229.6875 103.617188 229.59375 103.859375 229.59375 104.160156 C 229.59375 104.433594 229.683594 104.664063 229.859375 104.863281 C 230.085938 105.113281 230.632813 105.371094 231.503906 105.640625 C 232.375 105.90625 233.019531 106.1875 233.433594 106.472656 C 233.851563 106.757813 234.175781 107.148438 234.414063 107.648438 C 234.648438 108.144531 234.765625 108.757813 234.765625 109.488281 C 234.765625 110.152344 234.625 110.773438 234.34375 111.351563 C 234.058594 111.929688 233.660156 112.359375 233.144531 112.640625 C 232.628906 112.917969 231.980469 113.0625 231.210938 113.0625 C 230.085938 113.0625 229.226563 112.726563 228.625 112.050781 C 228.023438 111.375 227.664063 110.394531 227.546875 109.105469 Z M 236.292969 112.851563 L 236.292969 101.289063 L 242.871094 101.289063 L 242.871094 103.246094 L 238.09375 103.246094 L 238.09375 105.8125 L 242.535156 105.8125 L 242.535156 107.765625 L 238.09375 107.765625 L 238.09375 110.898438 L 243.042969 110.898438 L 243.042969 112.851563 Z M 244.097656 109.105469 L 245.847656 108.882813 C 245.953125 109.640625 246.164063 110.199219 246.484375 110.558594 C 246.804688 110.914063 247.238281 111.09375 247.78125 111.09375 C 248.355469 111.09375 248.789063 110.933594 249.082031 110.617188 C 249.371094 110.300781 249.519531 109.929688 249.519531 109.5 C 249.519531 109.226563 249.457031 108.996094 249.335938 108.800781 C 249.214844 108.609375 249 108.445313 248.691406 108.304688 C 248.484375 108.207031 248.007813 108.039063 247.261719 107.800781 C 246.304688 107.488281 245.632813 107.105469 245.246094 106.648438 C 244.703125 106.011719 244.433594 105.234375 244.433594 104.316406 C 244.433594 103.726563 244.5625 103.167969 244.816406 102.65625 C 245.070313 102.144531 245.441406 101.753906 245.921875 101.484375 C 246.402344 101.214844 246.980469 101.082031 247.664063 101.082031 C 248.773438 101.082031 249.613281 101.402344 250.171875 102.039063 C 250.734375 102.6875 251.027344 103.539063 251.058594 104.617188 L 249.257813 104.699219 C 249.183594 104.101563 249.019531 103.667969 248.769531 103.410156 C 248.519531 103.148438 248.140625 103.019531 247.640625 103.019531 C 247.125 103.019531 246.71875 103.15625 246.425781 103.4375 C 246.242188 103.617188 246.144531 103.859375 246.144531 104.160156 C 246.144531 104.433594 246.234375 104.664063 246.410156 104.863281 C 246.636719 105.113281 247.183594 105.371094 248.054688 105.640625 C 248.925781 105.90625 249.570313 106.1875 249.984375 106.472656 C 250.402344 106.757813 250.730469 107.148438 250.964844 107.648438 C 251.199219 108.144531 251.320313 108.757813 251.320313 109.488281 C 251.320313 110.152344 251.175781 110.773438 250.894531 111.351563 C 250.613281 111.929688 250.210938 112.359375 249.695313 112.640625 C 249.179688 112.917969 248.535156 113.0625 247.761719 113.0625 C 246.640625 113.0625 245.777344 112.726563 245.175781 112.050781 C 244.574219 111.375 244.214844 110.394531 244.097656 109.105469 Z M 244.097656 109.105469 "/>
</g>
</g>
</svg>
